<svg id="Layer_1" data-name="Layer 1" xmlns="http://www.w3.org/2000/svg" viewBox="0 0 2970.12 2035.23" style="background-color: white;">
  <defs>
    <style>
      .cls-1, .cls-24 {
        fill: #f8f294;
      }

      .cls-1, .cls-18, .cls-2, .cls-3, .cls-4, .cls-5, .cls-7 {
        stroke: #000;
      }

      .cls-1, .cls-10, .cls-11, .cls-12, .cls-18, .cls-19, .cls-2, .cls-21, .cls-22, .cls-23, .cls-24, .cls-25, .cls-3, .cls-4, .cls-5, .cls-7, .cls-8, .cls-9 {
        stroke-miterlimit: 10;
      }

      .cls-1, .cls-2, .cls-3, .cls-4, .cls-5, .cls-7 {
        stroke-width: 3px;
      }

      .cls-2, .cls-25 {
        fill: #f9aa8f;
      }

      .cls-23, .cls-3 {
        fill: #e0eed3;
      }

      .cls-21, .cls-4 {
        fill: #f3c8fe;
      }

      .cls-19, .cls-5 {
        fill: #c9f0ff;
      }

      .cls-6 {
        font-size: 95.38px;
      }

      .cls-17, .cls-6 {
        font-family: MyriadPro-Regular, Myriad Pro;
      }

      .cls-7 {
        fill: #fff;
      }

      .cls-10, .cls-11, .cls-12, .cls-18, .cls-8, .cls-9 {
        fill: none;
      }

      .cls-8 {
        stroke: #e0eed3;
      }

      .cls-10, .cls-11, .cls-12, .cls-8, .cls-9 {
        stroke-width: 10px;
        stroke-dasharray: 12;
      }

      .cls-9 {
        stroke: #f8f294;
      }

      .cls-10 {
        stroke: #f3c8fe;
      }

      .cls-11 {
        stroke: #c9f0ff;
      }

      .cls-12 {
        stroke: #f9aa8f;
      }

      .cls-13 {
        letter-spacing: 0.05em;
      }

      .cls-14 {
        letter-spacing: 0.06em;
      }

      .cls-15 {
        letter-spacing: 0em;
      }

      .cls-16 {
        letter-spacing: -0.05em;
      }

      .cls-17 {
        font-size: 60px;
      }

      .cls-18 {
        stroke-width: 7px;
      }

      .cls-19, .cls-20, .cls-21, .cls-22, .cls-23, .cls-24, .cls-25 {
        stroke: #231f20;
        stroke-width: 0.5px;
      }

      .cls-26 {
        letter-spacing: -0.01em;
      }

      .cls-27 {
        letter-spacing: 0.01em;
      }
    </style>
  </defs>
  <rect class="cls-1" x="1201.42" y="180.21" width="233.15" height="238.45"/>
  <rect class="cls-2" x="1427.46" y="180.21" width="233.15" height="238.45"/>
  <rect class="cls-3" x="975.37" y="180.21" width="233.15" height="238.45"/>
  <rect class="cls-4" x="749.21" y="180.21" width="233.15" height="238.45"/>
  <rect class="cls-5" x="523.17" y="180.21" width="233.15" height="238.45"/>
  <text class="cls-6" transform="translate(615.85 331.17)">0</text>
  <text class="cls-6" transform="translate(1520.07 331.17)">4</text>
  <text class="cls-6" transform="translate(1294.03 331.17)">3</text>
  <text class="cls-6" transform="translate(1067.98 331.17)">2</text>
  <text class="cls-6" transform="translate(841.94 331.17)">1</text>
  <g>
    <rect class="cls-7" x="2338.61" y="180.2" width="233.15" height="238.45"/>
    <rect class="cls-7" x="2112.56" y="180.2" width="233.15" height="238.45"/>
    <rect class="cls-7" x="1886.4" y="180.2" width="233.15" height="238.45"/>
    <rect class="cls-7" x="1660.36" y="180.2" width="233.15" height="238.45"/>
  </g>
  <text class="cls-6" transform="translate(1753.04 331.17)">5</text>
  <text class="cls-6" transform="translate(2431.22 331.17)">8</text>
  <text class="cls-6" transform="translate(2205.17 331.17)">7</text>
  <text class="cls-6" transform="translate(1979.13 331.17)">6</text>
  <text class="cls-6" transform="translate(599.21 121.67)">-2</text>
  <text class="cls-6" transform="translate(1064.98 119.67)">0</text>
  <text class="cls-6" transform="translate(825.3 121.67)">-1</text>
  <text class="cls-6" transform="translate(1297.95 119.66)">1</text>
  <text class="cls-6" transform="translate(1976.13 119.66)">4</text>
  <text class="cls-6" transform="translate(1750.08 119.66)">3</text>
  <text class="cls-6" transform="translate(1524.04 119.66)">2</text>
  <text class="cls-6" transform="translate(400.25 117.67)">t</text>
  <text class="cls-6" transform="translate(395.96 331.17)">x</text>
  <rect class="cls-4" x="1201.36" y="580.72" width="233.15" height="238.45"/>
  <rect class="cls-5" x="1427.41" y="580.72" width="233.15" height="238.45"/>
  <rect class="cls-3" x="975.32" y="580.72" width="233.15" height="238.45"/>
  <rect class="cls-1" x="749.16" y="580.72" width="233.15" height="238.45"/>
  <rect class="cls-2" x="523.12" y="580.72" width="233.15" height="238.45"/>
  <text class="cls-6" transform="translate(391.57 731.68)">h</text>
  <text class="cls-6" transform="translate(615.06 732.04)">4</text>
  <text class="cls-6" transform="translate(1519.28 732.04)">0</text>
  <text class="cls-6" transform="translate(1293.24 732.04)">1</text>
  <text class="cls-6" transform="translate(1067.19 732.04)">2</text>
  <text class="cls-6" transform="translate(841.15 732.04)">3</text>
  <line class="cls-8" x1="1092.45" y1="443.56" x2="1091.66" y2="556"/>
  <line class="cls-9" x1="1318.49" y1="443.56" x2="865.62" y2="556"/>
  <line class="cls-10" x1="865.62" y1="443.56" x2="1318.49" y2="556"/>
  <line class="cls-11" x1="639.75" y1="443.56" x2="1544.54" y2="556"/>
  <line class="cls-12" x1="1544.54" y1="443.56" x2="639.52" y2="556"/>
  <text class="cls-6" transform="translate(2202.42 124.07)">5</text>
  <text class="cls-6" transform="translate(2429.09 123.65)">6</text>
  <rect class="cls-7" x="1654.21" y="976.63" width="233.15" height="238.45"/>
  <rect class="cls-7" x="1880.26" y="976.63" width="233.15" height="238.45"/>
  <rect class="cls-7" x="1428.17" y="976.63" width="233.15" height="238.45"/>
  <rect class="cls-7" x="1202.01" y="976.63" width="233.15" height="238.45"/>
  <rect class="cls-7" x="975.97" y="976.63" width="233.15" height="238.45"/>
  <text class="cls-6" transform="translate(1043.62 1127.95)">31</text>
  <g>
    <text class="cls-6" transform="translate(371.9 1117.67)">∑ x<tspan class="cls-13" x="112.74" y="0">(</tspan><tspan class="cls-14" x="144.4" y="0">T</tspan><tspan x="197.53" y="0">)h(</tspan><tspan class="cls-15" x="304.64" y="0">t</tspan><tspan class="cls-16" x="335.73" y="0">-</tspan><tspan class="cls-14" x="360.25" y="0">T</tspan><tspan x="413.38" y="0">)</tspan></text>
    <text class="cls-17" transform="translate(383 1039.69)">2</text>
    <text class="cls-17" transform="translate(334.92 1190.98)">T=-2</text>
    <text class="cls-17" transform="translate(853.83 1190.98)">t=0</text>
  </g>
  <line class="cls-18" x1="837.02" y1="1024.59" x2="837.02" y2="1175.74"/>
  <g>
    <path class="cls-19" d="M457.87,878.05l2.55,5c.78,1.58,1.47,3.12,2.12,4.54h.14c.65-1.55,1.3-3.12,2-4.64l2.34-4.91h9.3l-8.76,14.13,8.87,15.24h-9.8L464,902.06c-.74-1.45-1.39-2.94-2-4.47h-.14c-.64,1.56-1.31,3-2,4.49l-2.47,5.34H448l8.91-14.85-8.73-14.52Z"/>
    <path class="cls-19" d="M492.77,865.94c-3.42,5.5-6.16,13.46-6.16,24.34,0,10.65,2.77,18.58,6.16,24.19h-6.16c-3.25-4.62-6.86-12.65-6.86-24.22s3.61-19.68,6.86-24.31Z"/>
    <path class="cls-19" d="M510.86,888.44v5.94H496.29v-5.94Z"/>
    <path class="cls-19" d="M514.89,907.42V902l4.67-4.66c7.49-7.29,11.64-11.94,11.69-16.8,0-3.16-1.83-5.58-6-5.58a13.41,13.41,0,0,0-7.59,2.82l-2.21-6.38A20,20,0,0,1,527,867.82c8.76,0,13,5.33,13,11.94,0,6.78-4.66,12.21-10,17.28L526.75,900v.12h13.9v7.34Z"/>
    <path class="cls-19" d="M545.38,914.47c3.39-5.55,6.16-13.62,6.16-24.34s-2.75-18.63-6.16-24.19h6.15c3.26,4.54,6.87,12.46,6.87,24.22s-3.61,19.6-6.87,24.31Z"/>
    <path class="cls-19" d="M564.83,865.15h8.76v16.3h.12a9.93,9.93,0,0,1,3.27-2.87,9.48,9.48,0,0,1,4.51-1.13c5.7,0,9.45,4.21,9.45,12.64v17.33h-8.76V890.78c0-3.56-1.09-6.18-4.17-6.18a4.27,4.27,0,0,0-4.12,3.1,6.9,6.9,0,0,0-.3,2v17.67h-8.76Z"/>
    <path class="cls-19" d="M610.37,865.94c-3.42,5.5-6.16,13.46-6.16,24.34,0,10.65,2.76,18.58,6.16,24.19h-6.16c-3.25-4.62-6.86-12.65-6.86-24.22s3.61-19.68,6.86-24.31Z"/>
    <path class="cls-19" d="M614.31,907.42V902L619,897.3c7.49-7.29,11.64-11.94,11.69-16.8,0-3.16-1.83-5.58-6-5.58a13.41,13.41,0,0,0-7.59,2.82l-2.21-6.38a20,20,0,0,1,11.52-3.54c8.76,0,13,5.33,13,11.94,0,6.78-4.66,12.21-10,17.28L626.17,900v.12h13.9v7.34Z"/>
    <path class="cls-19" d="M644.8,914.47c3.39-5.55,6.16-13.62,6.16-24.34s-2.75-18.63-6.16-24.19H651c3.26,4.54,6.87,12.46,6.87,24.22s-3.61,19.6-6.87,24.31Z"/>
    <path class="cls-20" d="M692.9,875.5v13.21h12.67v5.39H692.9v13.32h-5.62V894.1H674.61v-5.39h12.67V875.5Z"/>
    <path class="cls-21" d="M729.43,878.05l2.55,5c.78,1.58,1.47,3.12,2.12,4.54h.14c.65-1.55,1.3-3.12,2-4.64l2.34-4.91h9.3l-8.76,14.13L748,907.42h-9.81l-2.66-5.36c-.74-1.45-1.4-2.94-2-4.47h-.14c-.64,1.56-1.32,3-2,4.49l-2.46,5.34h-9.36l8.92-14.85-8.73-14.52Z"/>
    <path class="cls-21" d="M764.32,865.94c-3.41,5.5-6.15,13.46-6.15,24.34,0,10.65,2.76,18.58,6.15,24.19h-6.15c-3.25-4.62-6.87-12.65-6.87-24.22s3.62-19.68,6.87-24.31Z"/>
    <path class="cls-21" d="M782.42,888.44v5.94H767.85v-5.94Z"/>
    <path class="cls-21" d="M797.36,876.33h-.12l-7.18,3.48-1.45-6.63,9.92-4.76h7.33v39h-8.5Z"/>
    <path class="cls-21" d="M816.94,914.47c3.39-5.55,6.15-13.62,6.15-24.34s-2.75-18.63-6.15-24.19h6.15c3.25,4.54,6.87,12.46,6.87,24.22s-3.62,19.6-6.87,24.31Z"/>
    <path class="cls-21" d="M836.39,865.15h8.76v16.3h.12a9.93,9.93,0,0,1,3.27-2.87,9.48,9.48,0,0,1,4.51-1.13c5.7,0,9.45,4.21,9.45,12.64v17.33h-8.76V890.78c0-3.56-1.09-6.18-4.17-6.18a4.27,4.27,0,0,0-4.12,3.1,6.59,6.59,0,0,0-.3,2v17.67h-8.76Z"/>
    <path class="cls-21" d="M881.92,865.94c-3.41,5.5-6.15,13.46-6.15,24.34,0,10.65,2.76,18.58,6.15,24.19h-6.15c-3.25-4.62-6.87-12.65-6.87-24.22s3.62-19.68,6.87-24.31Z"/>
    <path class="cls-21" d="M896.78,876.33h-.12l-7.18,3.48L888,873.18l9.92-4.76h7.33v39h-8.5Z"/>
    <path class="cls-21" d="M916.36,914.47c3.39-5.55,6.15-13.62,6.15-24.34s-2.75-18.63-6.15-24.19h6.15c3.25,4.54,6.87,12.46,6.87,24.22s-3.62,19.6-6.87,24.31Z"/>
    <path class="cls-22" d="M964.46,875.5v13.21h12.67v5.39H964.46v13.32h-5.62V894.1H946.17v-5.39h12.67V875.5Z"/>
    <path class="cls-23" d="M1001,878.05l2.55,5c.78,1.58,1.47,3.12,2.11,4.54h.15c.65-1.55,1.3-3.12,2-4.64l2.33-4.91h9.31l-8.76,14.13,8.87,15.24h-9.81l-2.66-5.36c-.74-1.45-1.4-2.94-2-4.47h-.14c-.65,1.56-1.32,3-2,4.49l-2.46,5.34h-9.36l8.92-14.85-8.73-14.52Z"/>
    <path class="cls-23" d="M1035.88,865.94c-3.42,5.5-6.15,13.46-6.15,24.34,0,10.65,2.76,18.58,6.15,24.19h-6.15c-3.25-4.62-6.87-12.65-6.87-24.22s3.62-19.68,6.87-24.31Z"/>
    <path class="cls-23" d="M1066.8,887.75c0,12.61-4.94,20.28-13.79,20.28-9.61,0-13.59-9.26-13.61-20,0-11.3,4.4-20.22,13.88-20.22C1063.29,867.82,1066.8,877.48,1066.8,887.75Zm-18.64.2c-.05,9,1.8,13.24,5,13.24s4.83-4.42,4.83-13.3c0-8.56-1.55-13.21-4.85-13.21C1050.1,874.68,1048.13,878.89,1048.16,888Z"/>
    <path class="cls-23" d="M1070.32,914.47c3.39-5.55,6.15-13.62,6.15-24.34s-2.75-18.63-6.15-24.19h6.15c3.25,4.54,6.87,12.46,6.87,24.22s-3.62,19.6-6.87,24.31Z"/>
    <path class="cls-23" d="M1089.77,865.15h8.76v16.3h.12a10,10,0,0,1,3.26-2.87,9.55,9.55,0,0,1,4.52-1.13c5.7,0,9.45,4.21,9.45,12.64v17.33h-8.76V890.78c0-3.56-1.09-6.18-4.17-6.18a4.27,4.27,0,0,0-4.12,3.1,6.59,6.59,0,0,0-.3,2v17.67h-8.76Z"/>
    <path class="cls-23" d="M1135.3,865.94c-3.42,5.5-6.15,13.46-6.15,24.34,0,10.65,2.76,18.58,6.15,24.19h-6.15c-3.25-4.62-6.87-12.65-6.87-24.22s3.62-19.68,6.87-24.31Z"/>
    <path class="cls-23" d="M1166.22,887.75c0,12.61-4.94,20.28-13.79,20.28-9.61,0-13.59-9.26-13.61-20,0-11.3,4.4-20.22,13.88-20.22C1162.71,867.82,1166.22,877.48,1166.22,887.75Zm-18.64.2c0,9,1.8,13.24,5.05,13.24s4.83-4.42,4.83-13.3c0-8.56-1.55-13.21-4.85-13.21C1149.52,874.68,1147.55,878.89,1147.58,888Z"/>
    <path class="cls-23" d="M1169.74,914.47c3.39-5.55,6.15-13.62,6.15-24.34s-2.75-18.63-6.15-24.19h6.15c3.25,4.54,6.87,12.46,6.87,24.22s-3.62,19.6-6.87,24.31Z"/>
    <path class="cls-22" d="M1217.84,875.5v13.21h12.67v5.39h-12.67v13.32h-5.62V894.1h-12.67v-5.39h12.67V875.5Z"/>
    <path class="cls-24" d="M1254.37,878.05l2.54,5c.79,1.58,1.48,3.12,2.12,4.54h.15c.65-1.55,1.3-3.12,2-4.64l2.33-4.91h9.31l-8.76,14.13,8.87,15.24h-9.81l-2.66-5.36c-.74-1.45-1.4-2.94-2-4.47h-.15c-.64,1.56-1.31,3-2,4.49l-2.46,5.34h-9.36l8.92-14.85-8.74-14.52Z"/>
    <path class="cls-24" d="M1289.26,865.94c-3.42,5.5-6.15,13.46-6.15,24.34,0,10.65,2.76,18.58,6.15,24.19h-6.15c-3.25-4.62-6.87-12.65-6.87-24.22s3.62-19.68,6.87-24.31Z"/>
    <path class="cls-24" d="M1304.12,876.33H1304l-7.18,3.48-1.45-6.63,9.92-4.76h7.33v39h-8.5Z"/>
    <path class="cls-24" d="M1323.7,914.47c3.39-5.55,6.15-13.62,6.15-24.34s-2.75-18.63-6.15-24.19h6.15c3.25,4.54,6.87,12.46,6.87,24.22s-3.62,19.6-6.87,24.31Z"/>
    <path class="cls-24" d="M1343.14,865.15h8.77v16.3h.12a10,10,0,0,1,3.26-2.87,9.55,9.55,0,0,1,4.52-1.13c5.7,0,9.45,4.21,9.45,12.64v17.33h-8.76V890.78c0-3.56-1.09-6.18-4.18-6.18a4.26,4.26,0,0,0-4.11,3.1,6.59,6.59,0,0,0-.3,2v17.67h-8.77Z"/>
    <path class="cls-24" d="M1388.68,865.94c-3.42,5.5-6.15,13.46-6.15,24.34,0,10.65,2.76,18.58,6.15,24.19h-6.15c-3.25-4.62-6.87-12.65-6.87-24.22s3.62-19.68,6.87-24.31Z"/>
    <path class="cls-24" d="M1406.77,888.44v5.94h-14.56v-5.94Z"/>
    <path class="cls-24" d="M1421.71,876.33h-.12l-7.17,3.48-1.45-6.63,9.92-4.76h7.33v39h-8.51Z"/>
    <path class="cls-24" d="M1441.3,914.47c3.39-5.55,6.15-13.62,6.15-24.34s-2.75-18.63-6.15-24.19h6.15c3.25,4.54,6.87,12.46,6.87,24.22s-3.62,19.6-6.87,24.31Z"/>
    <path class="cls-22" d="M1489.4,875.5v13.21h12.67v5.39H1489.4v13.32h-5.62V894.1h-12.67v-5.39h12.67V875.5Z"/>
    <path class="cls-25" d="M1525.92,878.05l2.55,5c.78,1.58,1.48,3.12,2.12,4.54h.15c.64-1.55,1.29-3.12,2-4.64l2.34-4.91h9.3l-8.75,14.13,8.86,15.24h-9.8l-2.66-5.36c-.74-1.45-1.4-2.94-2-4.47h-.15c-.64,1.56-1.31,3-2,4.49l-2.46,5.34h-9.36l8.92-14.85-8.74-14.52Z"/>
    <path class="cls-25" d="M1560.82,865.94c-3.42,5.5-6.15,13.46-6.15,24.34,0,10.65,2.76,18.58,6.15,24.19h-6.15c-3.25-4.62-6.87-12.65-6.87-24.22s3.62-19.68,6.87-24.31Z"/>
    <path class="cls-25" d="M1564.76,907.42V902l4.68-4.66c7.49-7.29,11.63-11.94,11.68-16.8,0-3.16-1.83-5.58-6-5.58a13.47,13.47,0,0,0-7.6,2.82l-2.21-6.38a20.07,20.07,0,0,1,11.52-3.54c8.76,0,13,5.33,13,11.94,0,6.78-4.66,12.21-10,17.28l-3.22,2.92v.12h13.9v7.34Z"/>
    <path class="cls-25" d="M1595.25,914.47c3.4-5.55,6.16-13.62,6.16-24.34s-2.75-18.63-6.16-24.19h6.16c3.25,4.54,6.87,12.46,6.87,24.22s-3.62,19.6-6.87,24.31Z"/>
    <path class="cls-25" d="M1614.7,865.15h8.77v16.3h.12a9.89,9.89,0,0,1,3.26-2.87,9.52,9.52,0,0,1,4.52-1.13c5.69,0,9.45,4.21,9.45,12.64v17.33h-8.76V890.78c0-3.56-1.1-6.18-4.18-6.18a4.26,4.26,0,0,0-4.11,3.1,6.59,6.59,0,0,0-.3,2v17.67h-8.77Z"/>
    <path class="cls-25" d="M1660.24,865.94c-3.42,5.5-6.15,13.46-6.15,24.34,0,10.65,2.76,18.58,6.15,24.19h-6.15c-3.25-4.62-6.87-12.65-6.87-24.22s3.62-19.68,6.87-24.31Z"/>
    <path class="cls-25" d="M1678.33,888.44v5.94h-14.56v-5.94Z"/>
    <path class="cls-25" d="M1682.36,907.42V902l4.68-4.66c7.49-7.29,11.63-11.94,11.68-16.8,0-3.16-1.83-5.58-6-5.58a13.44,13.44,0,0,0-7.6,2.82l-2.21-6.38a20.07,20.07,0,0,1,11.52-3.54c8.76,0,13,5.33,13,11.94,0,6.78-4.66,12.21-10,17.28l-3.22,2.92v.12h13.9v7.34Z"/>
    <path class="cls-25" d="M1712.85,914.47c3.4-5.55,6.16-13.62,6.16-24.34s-2.75-18.63-6.16-24.19H1719c3.25,4.54,6.87,12.46,6.87,24.22s-3.62,19.6-6.87,24.31Z"/>
  </g>
  <rect class="cls-1" x="1196.51" y="1332.1" width="233.15" height="238.45"/>
  <rect class="cls-2" x="1422.56" y="1332.1" width="233.15" height="238.45"/>
  <rect class="cls-3" x="970.47" y="1332.1" width="233.15" height="238.45"/>
  <rect class="cls-4" x="744.31" y="1332.1" width="233.15" height="238.45"/>
  <rect class="cls-5" x="518.27" y="1332.1" width="233.15" height="238.45"/>
  <text class="cls-6" transform="translate(610.95 1483.07)">0</text>
  <text class="cls-6" transform="translate(1515.17 1483.07)">4</text>
  <text class="cls-6" transform="translate(1289.13 1483.07)">3</text>
  <text class="cls-6" transform="translate(1063.08 1483.07)">2</text>
  <text class="cls-6" transform="translate(837.04 1483.07)">1</text>
  <g>
    <rect class="cls-7" x="2333.7" y="1332.1" width="233.15" height="238.45"/>
    <rect class="cls-7" x="2107.66" y="1332.1" width="233.15" height="238.45"/>
    <rect class="cls-7" x="1881.5" y="1332.1" width="233.15" height="238.45"/>
    <rect class="cls-7" x="1655.46" y="1332.1" width="233.15" height="238.45"/>
  </g>
  <text class="cls-6" transform="translate(1748.14 1483.06)">5</text>
  <text class="cls-6" transform="translate(2426.32 1483.06)">8</text>
  <text class="cls-6" transform="translate(2200.27 1483.06)">7</text>
  <text class="cls-6" transform="translate(1974.23 1483.06)">6</text>
  <text class="cls-6" transform="translate(391.06 1483.07)">x</text>
  <rect class="cls-1" x="1196.46" y="1732.62" width="233.15" height="238.45"/>
  <rect class="cls-2" x="1422.5" y="1732.62" width="233.15" height="238.45"/>
  <rect class="cls-3" x="970.42" y="1732.62" width="233.15" height="238.45"/>
  <rect class="cls-4" x="744.26" y="1732.62" width="233.15" height="238.45"/>
  <rect class="cls-5" x="518.21" y="1732.62" width="233.15" height="238.45"/>
  <text class="cls-6" transform="translate(82.49 1883.58)">flipped h</text>
  <text class="cls-6" transform="translate(610.16 1883.93)">0</text>
  <text class="cls-6" transform="translate(1514.38 1883.93)">4</text>
  <text class="cls-6" transform="translate(1288.34 1883.93)">3</text>
  <text class="cls-6" transform="translate(1062.29 1883.93)">2</text>
  <text class="cls-6" transform="translate(836.25 1883.93)">1</text>
  <line class="cls-8" x1="1087.55" y1="1595.45" x2="1086.76" y2="1707.89"/>
  <line class="cls-9" x1="1313.59" y1="1595.45" x2="1312.77" y2="1708"/>
  <line class="cls-10" x1="860.71" y1="1595.45" x2="860.77" y2="1708"/>
  <line class="cls-11" x1="634.84" y1="1595.45" x2="634.77" y2="1708"/>
  <line class="cls-12" x1="1539.63" y1="1595.45" x2="1539.77" y2="1708"/>
  <text class="cls-17" transform="translate(1653.76 1664.85)">} dot p<tspan class="cls-26" x="163.26" y="0">r</tspan><tspan x="182.28" y="0">odu</tspan><tspan class="cls-27" x="282.12" y="0">c</tspan><tspan x="309.77" y="0">t = 31</tspan></text>
</svg>
