<svg id="Layer_1" data-name="Layer 1" xmlns="http://www.w3.org/2000/svg" viewBox="0 0 2549.12 1369.23" style="background-color: white;"><defs><style>.cls-1{fill:#e0eed3;}.cls-2{fill:#f3c8fe;}.cls-17,.cls-3{fill:#fff;}.cls-10,.cls-11,.cls-12,.cls-13,.cls-14,.cls-15,.cls-18,.cls-19,.cls-20,.cls-21,.cls-22,.cls-23,.cls-24,.cls-25,.cls-26,.cls-27,.cls-28,.cls-29,.cls-30,.cls-31,.cls-32,.cls-33,.cls-34,.cls-35,.cls-36,.cls-37,.cls-38,.cls-39,.cls-4,.cls-40,.cls-41,.cls-6,.cls-7,.cls-8,.cls-9{fill:none;}.cls-17,.cls-4{stroke:#000;}.cls-10,.cls-11,.cls-12,.cls-13,.cls-14,.cls-15,.cls-17,.cls-18,.cls-19,.cls-20,.cls-21,.cls-22,.cls-23,.cls-24,.cls-25,.cls-26,.cls-27,.cls-28,.cls-29,.cls-30,.cls-31,.cls-32,.cls-33,.cls-34,.cls-35,.cls-36,.cls-37,.cls-38,.cls-39,.cls-4,.cls-40,.cls-41,.cls-6,.cls-7,.cls-8,.cls-9{stroke-miterlimit:10;stroke-width:3px;}.cls-5{font-size:48.53px;font-family:MyriadPro-Regular, Myriad Pro;}.cls-10,.cls-18,.cls-19,.cls-20,.cls-21,.cls-26,.cls-27,.cls-28,.cls-29,.cls-34,.cls-35,.cls-36,.cls-37,.cls-6,.cls-7,.cls-8,.cls-9{stroke:#91bc62;}.cls-7{stroke-dasharray:11.77 11.77;}.cls-8{stroke-dasharray:11.78 11.78;}.cls-9{stroke-dasharray:11.77 11.77;}.cls-10{stroke-dasharray:11.75 11.75;}.cls-11,.cls-12,.cls-13,.cls-14,.cls-15,.cls-22,.cls-23,.cls-24,.cls-25,.cls-30,.cls-31,.cls-32,.cls-33,.cls-38,.cls-39,.cls-40,.cls-41{stroke:#db84f7;}.cls-12{stroke-dasharray:12.03 12.03;}.cls-13{stroke-dasharray:12.12 12.12;}.cls-14{stroke-dasharray:11.7 11.7;}.cls-15{stroke-dasharray:11.72 11.72;}.cls-16{fill:#c9f0ff;}.cls-18{stroke-dasharray:12.21 12.21;}.cls-19{stroke-dasharray:12.2 12.2;}.cls-20{stroke-dasharray:12.18 12.18;}.cls-21{stroke-dasharray:12.23 12.23;}.cls-22{stroke-dasharray:11.78 11.78;}.cls-23{stroke-dasharray:11.72 11.72;}.cls-24{stroke-dasharray:11.97 11.97;}.cls-25{stroke-dasharray:11.79 11.79;}.cls-26{stroke-dasharray:12.01 12.01;}.cls-27{stroke-dasharray:12 12;}.cls-28{stroke-dasharray:12.01 12.01;}.cls-29{stroke-dasharray:12.01 12.01;}.cls-30{stroke-dasharray:11.85 11.85;}.cls-31{stroke-dasharray:11.72 11.72;}.cls-32{stroke-dasharray:11.79 11.79;}.cls-33{stroke-dasharray:12.03 12.03;}.cls-34{stroke-dasharray:12.26 12.26;}.cls-35{stroke-dasharray:12.21 12.21;}.cls-36{stroke-dasharray:12.27 12.27;}.cls-37{stroke-dasharray:12.28 12.28;}.cls-38{stroke-dasharray:11.84 11.84;}.cls-39{stroke-dasharray:12.02 12.02;}.cls-40{stroke-dasharray:11.78 11.78;}.cls-41{stroke-dasharray:11.74 11.74;}</style></defs><rect class="cls-1" x="131.36" y="71.83" width="238.58" height="238.58"/><rect class="cls-2" x="909.11" y="133.83" width="118.62" height="119.29"/><path d="M485.22,74.49V425H134.7V74.49H485.22m3-3H131.7V428H488.22V71.49Z"/><path d="M248,74.49V189H134.7V74.49H248m3-3H131.7V192H251V71.49Z"/><path d="M368.63,74.49V189H251.29V74.49H368.63m3-3H248.29V192H371.63V71.49Z"/><rect class="cls-3" x="371.11" y="72.99" width="115.62" height="118.31"/><path d="M485.22,74.49V189.8H372.61V74.49H485.22m3-3H369.61V192.8H488.22V71.49Z"/><path d="M248,192.43V314.49H134.7V192.43H248m3-3H131.7V317.49H251V189.43Z"/><path d="M368.63,192.43V314.49H251.29V192.43H368.63m3-3H248.29V317.49H371.63V189.43Z"/><rect class="cls-3" x="371.11" y="190.93" width="115.62" height="125.05"/><path d="M485.22,192.43V314.49H372.61V192.43H485.22m3-3H369.61V317.49H488.22V189.43Z"/><rect class="cls-3" x="133.2" y="310.9" width="116.3" height="115.62"/><path d="M248,312.4V425H134.7V312.4H248m3-3H131.7V428H251V309.4Z"/><rect class="cls-3" x="249.79" y="310.9" width="120.33" height="115.62"/><path d="M368.63,312.4V425H251.29V312.4H368.63m3-3H248.29V428H371.63V309.4Z"/><rect class="cls-3" x="371.11" y="310.9" width="115.62" height="115.62"/><path d="M485.22,312.4V425H372.61V312.4H485.22m3-3H369.61V428H488.22V309.4Z"/><path d="M1144,136.82V370.08H910.78V136.82H1144m3-3H907.78V373.08H1147V133.82Z"/><line class="cls-4" x1="1027.41" y1="369.7" x2="1027.73" y2="134.17"/><text class="cls-5" transform="translate(955.74 209.45)">2</text><line class="cls-4" x1="1147.04" y1="253.45" x2="907.78" y2="253.45"/><line class="cls-3" x1="369.61" y1="71.49" x2="817.12" y2="281.77"/><line class="cls-6" x1="369.61" y1="71.49" x2="375.04" y2="74.04"/><line class="cls-7" x1="385.69" y1="79.05" x2="806.36" y2="276.71"/><line class="cls-6" x1="811.69" y1="279.21" x2="817.12" y2="281.77"/><line class="cls-3" x1="579.88" y1="281.77" x2="131.7" y2="71.49"/><line class="cls-6" x1="579.88" y1="281.77" x2="574.45" y2="279.22"/><line class="cls-8" x1="563.78" y1="274.21" x2="142.46" y2="76.54"/><line class="cls-6" x1="137.13" y1="74.04" x2="131.7" y2="71.49"/><line class="cls-3" x1="131.7" y1="309.4" x2="579.88" y2="518.33"/><line class="cls-6" x1="131.7" y1="309.4" x2="137.14" y2="311.93"/><line class="cls-9" x1="147.8" y1="316.91" x2="569.11" y2="513.31"/><line class="cls-6" x1="574.44" y1="515.79" x2="579.88" y2="518.33"/><line class="cls-3" x1="369.61" y1="309.4" x2="817.12" y2="518.33"/><line class="cls-6" x1="369.61" y1="309.4" x2="375.04" y2="311.94"/><line class="cls-10" x1="385.69" y1="316.91" x2="806.35" y2="513.3"/><line class="cls-6" x1="811.68" y1="515.79" x2="817.12" y2="518.33"/><line class="cls-3" x1="579.21" y1="281.77" x2="908.77" y2="134.84"/><line class="cls-11" x1="579.21" y1="281.77" x2="584.69" y2="279.32"/><line class="cls-12" x1="595.67" y1="274.43" x2="897.8" y2="139.73"/><line class="cls-11" x1="903.29" y1="137.29" x2="908.77" y2="134.84"/><line class="cls-3" x1="816.44" y1="519" x2="1027.41" y2="253.46"/><line class="cls-11" x1="816.44" y1="519" x2="820.17" y2="514.3"/><line class="cls-13" x1="827.71" y1="504.82" x2="1019.91" y2="262.9"/><line class="cls-11" x1="1023.68" y1="258.16" x2="1027.41" y2="253.46"/><line class="cls-11" x1="816.44" y1="281.77" x2="821.37" y2="278.34"/><line class="cls-14" x1="830.98" y1="271.67" x2="1018.33" y2="141.6"/><line class="cls-11" x1="1023.14" y1="138.26" x2="1028.07" y2="134.84"/><line class="cls-3" x1="909.11" y1="253.12" x2="580.54" y2="517.99"/><line class="cls-11" x1="909.11" y1="253.12" x2="904.44" y2="256.89"/><line class="cls-15" x1="895.32" y1="264.24" x2="589.77" y2="510.55"/><line class="cls-11" x1="585.21" y1="514.22" x2="580.54" y2="517.99"/><rect class="cls-3" x="580.03" y="281.92" width="236.26" height="236.26"/><path d="M814.79,283.42V516.67H581.53V283.42H814.79m3-3H578.53V519.67H817.79V280.42Z"/><rect class="cls-16" x="580.56" y="282.44" width="235.21" height="235.21"/><line class="cls-17" x1="698.16" y1="518.33" x2="698.16" y2="280.42"/><line class="cls-17" x1="578.53" y1="400.05" x2="817.79" y2="400.05"/><text class="cls-5" transform="translate(177.96 147.51)">1</text><text class="cls-5" transform="translate(297.22 147.4)">1</text><text class="cls-5" transform="translate(177.83 266.71)">1</text><text class="cls-5" transform="translate(297.8 266.04)">0</text><text class="cls-5" transform="translate(626.76 356.87)">0</text><text class="cls-5" transform="translate(744.71 356.87)">1</text><text class="cls-5" transform="translate(626.76 475.49)">1</text><text class="cls-5" transform="translate(744.71 475.49)">2</text><text class="cls-5" transform="translate(459.83 577.48)">1•0 + 1•1 + 1•1 + 0•2 = 2</text><rect class="cls-1" x="1520.08" y="73.83" width="238.58" height="238.58"/><rect class="cls-2" x="2296.83" y="133.83" width="118.62" height="119.29"/><path d="M1755.94,74.49V425H1405.41V74.49h350.53m3-3H1402.41V428h356.53V71.49Z"/><path d="M1518,74.49V189.92H1405.41V74.49H1518m3-3H1402.41V192.92H1521V71.49Z"/><path d="M1639.34,74.49V189.92H1522V74.49h117.33m3-3H1519V192.92h123.33V71.49Z"/><path d="M1755.94,74.49V189.8H1643.32V74.49h112.62m3-3H1640.32V192.8h118.62V71.49Z"/><path d="M1518,192.43V314.49H1405.41V192.43H1518m3-3H1402.41V317.49H1521V189.43Z"/><path d="M1639.34,192.43V314.49H1522V192.43h117.33m3-3H1519V317.49h123.33V189.43Z"/><path d="M1755.94,192.43V314.49H1643.32V192.43h112.62m3-3H1640.32V317.49h118.62V189.43Z"/><rect class="cls-3" x="1403.91" y="310.9" width="115.62" height="115.62"/><path d="M1518,312.4V425H1405.41V312.4H1518m3-3H1402.41V428H1521V309.4Z"/><rect class="cls-3" x="1520.51" y="310.9" width="120.33" height="115.62"/><path d="M1639.34,312.4V425H1522V312.4h117.33m3-3H1519V428h123.33V309.4Z"/><rect class="cls-3" x="1641.82" y="310.9" width="115.62" height="115.62"/><path d="M1755.94,312.4V425H1643.32V312.4h112.62m3-3H1640.32V428h118.62V309.4Z"/><path d="M2414.75,136.82V370.08H2181.5V136.82h233.25m3-3H2178.5V373.08h239.25V133.82Z"/><line class="cls-4" x1="2298.13" y1="369.7" x2="2298.44" y2="134.17"/><text class="cls-5" transform="translate(2226.45 209.45)">2</text><line class="cls-4" x1="2417.75" y1="253.45" x2="2178.5" y2="253.45"/><line class="cls-3" x1="1757.54" y1="73.42" x2="2087.83" y2="281.77"/><line class="cls-6" x1="1757.54" y1="73.42" x2="1762.61" y2="76.62"/><line class="cls-18" x1="1772.94" y1="83.13" x2="2077.59" y2="275.31"/><line class="cls-6" x1="2082.76" y1="278.57" x2="2087.83" y2="281.77"/><line class="cls-3" x1="1850.6" y1="281.77" x2="1520.54" y2="73.42"/><line class="cls-6" x1="1850.6" y1="281.77" x2="1845.52" y2="278.56"/><line class="cls-19" x1="1835.2" y1="272.05" x2="1530.77" y2="79.88"/><line class="cls-6" x1="1525.61" y1="76.62" x2="1520.54" y2="73.42"/><line class="cls-3" x1="1520.54" y1="311.42" x2="1850.6" y2="518.33"/><line class="cls-6" x1="1520.54" y1="311.42" x2="1525.62" y2="314.6"/><line class="cls-20" x1="1535.94" y1="321.07" x2="1840.35" y2="511.91"/><line class="cls-6" x1="1845.51" y1="515.14" x2="1850.6" y2="518.33"/><line class="cls-3" x1="1756.54" y1="310.42" x2="2087.83" y2="518.33"/><line class="cls-6" x1="1756.54" y1="310.42" x2="1761.62" y2="313.61"/><line class="cls-21" x1="1771.98" y1="320.11" x2="2077.57" y2="511.89"/><line class="cls-6" x1="2082.75" y1="515.14" x2="2087.83" y2="518.33"/><line class="cls-3" x1="1849.92" y1="281.77" x2="2298.54" y2="136.42"/><line class="cls-11" x1="1849.92" y1="281.77" x2="1855.63" y2="279.92"/><line class="cls-22" x1="1866.84" y1="276.28" x2="2287.23" y2="140.08"/><line class="cls-11" x1="2292.83" y1="138.27" x2="2298.54" y2="136.42"/><line class="cls-3" x1="2087.16" y1="519" x2="2415.54" y2="253.42"/><line class="cls-11" x1="2087.16" y1="519" x2="2091.82" y2="515.23"/><line class="cls-23" x1="2100.94" y1="507.86" x2="2406.32" y2="260.88"/><line class="cls-11" x1="2410.87" y1="257.19" x2="2415.54" y2="253.42"/><line class="cls-11" x1="2087.16" y1="281.77" x2="2092.64" y2="279.34"/><line class="cls-24" x1="2103.59" y1="274.49" x2="2404.58" y2="141.27"/><line class="cls-11" x1="2410.05" y1="138.85" x2="2415.54" y2="136.42"/><line class="cls-3" x1="2298.54" y1="253.42" x2="1851.54" y2="517.42"/><line class="cls-11" x1="2298.54" y1="253.42" x2="2293.37" y2="256.47"/><line class="cls-25" x1="2283.22" y1="262.47" x2="1861.78" y2="511.37"/><line class="cls-11" x1="1856.71" y1="514.37" x2="1851.54" y2="517.42"/><rect class="cls-3" x="1850.75" y="281.92" width="236.26" height="236.26"/><path d="M2085.51,283.42V516.67H1852.25V283.42h233.26m3-3H1849.25V519.67h239.26V280.42Z"/><rect class="cls-16" x="1852.48" y="282.92" width="233.55" height="233.49"/><line class="cls-17" x1="1968.88" y1="518.33" x2="1968.88" y2="280.42"/><line class="cls-17" x1="1849.25" y1="400.05" x2="2088.51" y2="400.05"/><text class="cls-5" transform="translate(1687.67 148.51)">1</text><text class="cls-5" transform="translate(1567.94 147.4)">1</text><text class="cls-5" transform="translate(1687.55 267.71)">2</text><text class="cls-5" transform="translate(1568.51 268.04)">0</text><text class="cls-5" transform="translate(1897.48 356.87)">0</text><text class="cls-5" transform="translate(2015.42 356.87)">1</text><text class="cls-5" transform="translate(1897.48 475.49)">1</text><text class="cls-5" transform="translate(2015.42 475.49)">2</text><text class="cls-5" transform="translate(1730.55 577.48)">1•0 + 1•1 + 0•1 + 2•2 = 5</text><text class="cls-5" transform="translate(2345.91 209)">5</text><rect class="cls-1" x="132.36" y="907.7" width="238.58" height="237.81"/><rect class="cls-2" x="909.11" y="971.93" width="118.62" height="119.29"/><path d="M485.22,792.59v350.53H134.7V792.59H485.22m3-3H131.7v356.53H488.22V789.59Z"/><path d="M248.51,792.59V907.7H134.7V792.59H248.51m3-3H131.7V910.7H251.51V789.59Z"/><path d="M368.63,792.59V907.7H251.29V792.59H368.63m3-3H248.29V910.7H371.63V789.59Z"/><rect class="cls-3" x="371.11" y="791.09" width="115.62" height="118.31"/><path d="M485.22,792.59V907.9H372.61V792.59H485.22m3-3H369.61V910.9H488.22V789.59Z"/><path d="M248.51,910.53V1027.7H134.7V910.53H248.51m3-3H131.7V1030.7H251.51V907.53Z"/><path d="M368.63,910.53V1027.7H251.29V910.53H368.63m3-3H248.29V1030.7H371.63V907.53Z"/><rect class="cls-3" x="371.11" y="909.03" width="115.62" height="125.05"/><path d="M485.22,910.53v122.06H372.61V910.53H485.22m3-3H369.61v128.06H488.22V907.53Z"/><path d="M248.51,1030.5v112.62H134.7V1030.5H248.51m3-3H131.7v118.62H251.51V1027.5Z"/><path d="M368.63,1030.5v112.62H251.29V1030.5H368.63m3-3H248.29v118.62H371.63V1027.5Z"/><rect class="cls-3" x="371.11" y="1029" width="115.62" height="115.62"/><path d="M485.22,1030.5v112.62H372.61V1030.5H485.22m3-3H369.61v118.62H488.22V1027.5Z"/><path d="M1144,854.92v233.26H910.78V854.92H1144m3-3H907.78v239.26H1147V851.92Z"/><line class="cls-4" x1="1027.41" y1="1089.7" x2="1027.73" y2="852.27"/><text class="cls-5" transform="translate(955.74 927.55)">2</text><line class="cls-4" x1="1147.04" y1="971.55" x2="907.78" y2="971.55"/><line class="cls-3" x1="370.01" y1="909.2" x2="817.12" y2="999.87"/><line class="cls-6" x1="370.01" y1="909.2" x2="375.89" y2="910.4"/><line class="cls-26" x1="387.66" y1="912.78" x2="805.35" y2="997.48"/><line class="cls-6" x1="811.24" y1="998.67" x2="817.12" y2="999.87"/><line class="cls-3" x1="579.88" y1="999.87" x2="133.01" y2="909.2"/><line class="cls-6" x1="579.88" y1="999.87" x2="574" y2="998.67"/><line class="cls-27" x1="562.24" y1="996.29" x2="144.77" y2="911.59"/><line class="cls-6" x1="138.89" y1="910.4" x2="133.01" y2="909.2"/><line class="cls-3" x1="133.01" y1="1144.2" x2="579.88" y2="1236.43"/><line class="cls-6" x1="133.01" y1="1144.2" x2="138.89" y2="1145.42"/><line class="cls-28" x1="150.65" y1="1147.84" x2="568.13" y2="1234"/><line class="cls-6" x1="574.01" y1="1235.21" x2="579.88" y2="1236.43"/><line class="cls-3" x1="370.01" y1="1144.2" x2="817.12" y2="1236.43"/><line class="cls-6" x1="370.01" y1="1144.2" x2="375.89" y2="1145.42"/><line class="cls-29" x1="387.66" y1="1147.84" x2="805.36" y2="1234"/><line class="cls-6" x1="811.24" y1="1235.21" x2="817.12" y2="1236.43"/><line class="cls-3" x1="579.21" y1="999.87" x2="910.01" y2="971.2"/><line class="cls-11" x1="579.21" y1="999.87" x2="585.19" y2="999.35"/><line class="cls-30" x1="596.99" y1="998.33" x2="898.13" y2="972.23"/><line class="cls-11" x1="904.04" y1="971.72" x2="910.01" y2="971.2"/><line class="cls-3" x1="816.44" y1="1237.1" x2="1028.01" y2="1089.2"/><line class="cls-11" x1="816.44" y1="1237.1" x2="821.36" y2="1233.66"/><line class="cls-31" x1="830.97" y1="1226.95" x2="1018.29" y2="1096"/><line class="cls-11" x1="1023.1" y1="1092.64" x2="1028.01" y2="1089.2"/><line class="cls-11" x1="816.44" y1="999.87" x2="822.39" y2="999.08"/><line class="cls-32" x1="834.08" y1="997.55" x2="1015.22" y2="973.75"/><line class="cls-11" x1="1021.07" y1="972.99" x2="1027.01" y2="972.2"/><line class="cls-3" x1="910.01" y1="1089.2" x2="580.54" y2="1236.09"/><line class="cls-11" x1="910.01" y1="1089.2" x2="904.53" y2="1091.65"/><line class="cls-33" x1="893.55" y1="1096.54" x2="591.51" y2="1231.2"/><line class="cls-11" x1="586.02" y1="1233.65" x2="580.54" y2="1236.09"/><rect class="cls-3" x="580.03" y="1000.02" width="236.26" height="236.26"/><path d="M814.79,1001.52v233.25H581.53V1001.52H814.79m3-3H578.53v239.25H817.79V998.52Z"/><rect class="cls-16" x="580.56" y="1000.54" width="235.21" height="235.21"/><line class="cls-17" x1="698.16" y1="1236.43" x2="698.16" y2="998.52"/><line class="cls-17" x1="578.53" y1="1118.15" x2="817.79" y2="1118.15"/><text class="cls-5" transform="translate(177.83 984.81)">1</text><text class="cls-5" transform="translate(297.8 984.14)">0</text><text class="cls-5" transform="translate(626.76 1074.97)">0</text><text class="cls-5" transform="translate(744.71 1074.97)">1</text><text class="cls-5" transform="translate(626.76 1193.59)">1</text><text class="cls-5" transform="translate(744.71 1193.59)">2</text><text class="cls-5" transform="translate(459.83 1295.58)">1•0 + 0•1 + 1•1 + 2•2 = 5</text><text class="cls-5" transform="translate(177.79 1102.95)">1</text><text class="cls-5" transform="translate(298.52 1102.86)">2</text><text class="cls-5" transform="translate(1076.42 928.31)">5</text><text class="cls-5" transform="translate(955.76 1049.08)">5</text><rect class="cls-1" x="1519.56" y="908.33" width="238.58" height="236.37"/><rect class="cls-2" x="2298.83" y="970.93" width="118.62" height="119.29"/><path d="M1755.94,792.59v350.53H1405.41V792.59h350.53m3-3H1402.41v356.53h356.53V789.59Z"/><path d="M1518.51,792.59V908h-113.1V792.59h113.1m3-3h-119.1V911h119.1V789.59Z"/><path d="M1639.34,792.59V908H1522V792.59h117.33m3-3H1519V911h123.33V789.59Z"/><path d="M1755.94,792.59V907.9H1642.51V792.59h113.43m3-3H1639.51V910.9h119.43V789.59Z"/><path d="M1518.51,910.53v122.06h-113.1V910.53h113.1m3-3h-119.1v128.06h119.1V907.53Z"/><path d="M1639.34,910.53V1027.7H1522V910.53h117.33m3-3H1519V1030.7h123.33V907.53Z"/><path d="M1755.94,910.53V1027.7H1642.51V910.53h113.43m3-3H1639.51V1030.7h119.43V907.53Z"/><rect class="cls-3" x="1403.91" y="1029" width="116.1" height="115.62"/><path d="M1518.51,1030.5v112.62h-113.1V1030.5h113.1m3-3h-119.1v118.62h119.1V1027.5Z"/><path d="M1639.34,1030.5v112.62H1522V1030.5h117.33m3-3H1519v118.62h123.33V1027.5Z"/><path d="M1755.94,1030.5v112.62H1642.51V1030.5h113.43m3-3H1639.51v118.62h119.43V1027.5Z"/><path d="M2414.75,854.92v233.26H2181.5V854.92h233.25m3-3H2178.5v239.26h239.25V851.92Z"/><line class="cls-4" x1="2298.13" y1="1089.7" x2="2298.44" y2="852.27"/><text class="cls-5" transform="translate(2226.45 927.55)">2</text><line class="cls-4" x1="2417.75" y1="971.55" x2="2178.5" y2="971.55"/><line class="cls-3" x1="1757.01" y1="909.2" x2="2087.83" y2="999.87"/><line class="cls-6" x1="1757.01" y1="909.2" x2="1762.8" y2="910.79"/><line class="cls-34" x1="1774.62" y1="914.03" x2="2076.13" y2="996.66"/><line class="cls-6" x1="2082.05" y1="998.28" x2="2087.83" y2="999.87"/><line class="cls-3" x1="1850.6" y1="999.87" x2="1521.01" y2="910.2"/><line class="cls-6" x1="1850.6" y1="999.87" x2="1844.81" y2="998.29"/><line class="cls-35" x1="1833.03" y1="995.09" x2="1532.69" y2="913.38"/><line class="cls-6" x1="1526.8" y1="911.78" x2="1521.01" y2="910.2"/><line class="cls-3" x1="1520.01" y1="1144.2" x2="1850.6" y2="1236.43"/><line class="cls-6" x1="1520.01" y1="1144.2" x2="1525.79" y2="1145.82"/><line class="cls-36" x1="1537.61" y1="1149.11" x2="1838.91" y2="1233.17"/><line class="cls-6" x1="1844.82" y1="1234.81" x2="1850.6" y2="1236.43"/><line class="cls-3" x1="1757.01" y1="1144.2" x2="2087.83" y2="1236.43"/><line class="cls-6" x1="1757.01" y1="1144.2" x2="1762.79" y2="1145.81"/><line class="cls-37" x1="1774.62" y1="1149.11" x2="2076.14" y2="1233.17"/><line class="cls-6" x1="2082.05" y1="1234.82" x2="2087.83" y2="1236.43"/><line class="cls-3" x1="1849.92" y1="999.87" x2="2299.01" y2="971.2"/><line class="cls-11" x1="1849.92" y1="999.87" x2="1855.91" y2="999.48"/><line class="cls-38" x1="1867.73" y1="998.73" x2="2287.12" y2="971.96"/><line class="cls-11" x1="2293.03" y1="971.59" x2="2299.01" y2="971.2"/><line class="cls-3" x1="2087.16" y1="1237.1" x2="2416.01" y2="1089.2"/><line class="cls-11" x1="2087.16" y1="1237.1" x2="2092.63" y2="1234.64"/><line class="cls-39" x1="2103.59" y1="1229.71" x2="2405.06" y2="1094.13"/><line class="cls-11" x1="2410.54" y1="1091.66" x2="2416.01" y2="1089.2"/><line class="cls-11" x1="2087.16" y1="999.87" x2="2093.14" y2="999.36"/><line class="cls-40" x1="2104.87" y1="998.38" x2="2404.17" y2="973.2"/><line class="cls-11" x1="2410.04" y1="972.71" x2="2416.01" y2="972.2"/><line class="cls-3" x1="2298.01" y1="1089.2" x2="1851.54" y2="1235.52"/><line class="cls-11" x1="2298.01" y1="1089.2" x2="2292.31" y2="1091.07"/><line class="cls-41" x1="2281.16" y1="1094.73" x2="1862.82" y2="1231.82"/><line class="cls-11" x1="1857.24" y1="1233.65" x2="1851.54" y2="1235.52"/><rect class="cls-3" x="1850.75" y="1000.02" width="236.26" height="236.26"/><path d="M2085.51,1001.52v233.25H1852.25V1001.52h233.26m3-3H1849.25v239.25h239.26V998.52Z"/><rect class="cls-16" x="1852.48" y="1001.02" width="233.55" height="233.49"/><line class="cls-17" x1="1968.88" y1="1236.43" x2="1968.88" y2="998.52"/><line class="cls-17" x1="1849.25" y1="1118.15" x2="2088.51" y2="1118.15"/><text class="cls-5" transform="translate(1687.55 985.81)">2</text><text class="cls-5" transform="translate(1568.51 986.14)">0</text><text class="cls-5" transform="translate(1897.48 1074.97)">0</text><text class="cls-5" transform="translate(2015.42 1074.97)">1</text><text class="cls-5" transform="translate(1897.48 1193.59)">1</text><text class="cls-5" transform="translate(2015.42 1193.59)">2</text><text class="cls-5" transform="translate(1730.55 1295.58)">0•0 + 2•1 + 2•1 + 2•2 = 8</text><text class="cls-5" transform="translate(2345.91 927.1)">5</text><text class="cls-5" transform="translate(1686.85 1102.8)">2</text><text class="cls-5" transform="translate(1568.85 1103.8)">2</text><text class="cls-5" transform="translate(2226.71 1046.07)">5</text><text class="cls-5" transform="translate(2345.95 1046.07)">8</text></svg>
